<svg width="375" height="59" viewBox="0 0 375 59" fill="none" xmlns="http://www.w3.org/2000/svg">
<path fill-rule="evenodd" clip-rule="evenodd" d="M373.389 9.4807L348.37 34.5183L373.408 59.5376C375.531 61.6607 375.531 65.1199 373.408 67.2429C372.328 68.3045 370.955 68.8353 369.546 68.8353C368.137 68.8353 366.746 68.3045 365.684 67.2429L336.803 38.3618C334.68 36.2388 334.68 32.7796 336.803 30.6565L365.684 1.77541C367.807 -0.347663 371.266 -0.347663 373.389 1.77541C375.513 3.89848 375.513 7.35763 373.389 9.4807ZM324.778 0.183103C321.777 0.183105 319.324 2.61732 319.324 5.63721L319.324 63.3995C319.324 66.401 321.759 68.8536 324.778 68.8536C327.78 68.8536 330.233 66.4193 330.233 63.3995L330.233 5.63721C330.233 2.61732 327.798 0.183103 324.778 0.183103ZM302.321 34.5183C302.321 47.3865 291.884 57.8767 279.036 57.9631C278.889 57.9514 278.741 57.9454 278.591 57.9454C265.67 57.9454 255.146 47.4398 255.146 34.5184C255.146 21.6502 265.583 11.16 278.432 11.0736C278.578 11.0853 278.726 11.0913 278.876 11.0913C291.798 11.0913 302.321 21.5969 302.321 34.5183ZM278.876 0.183105C278.828 0.183105 278.781 0.183717 278.733 0.184935C278.686 0.183748 278.639 0.183151 278.591 0.183151C259.649 0.183149 244.256 15.5937 244.256 34.5184C244.256 53.4613 259.667 68.8536 278.591 68.8536C278.639 68.8536 278.687 68.853 278.735 68.8518C278.782 68.853 278.829 68.8536 278.876 68.8536C297.819 68.8536 313.211 53.443 313.211 34.5183C313.211 15.5754 297.801 0.183105 278.876 0.183105ZM232.689 68.8536C235.691 68.8536 238.143 66.4194 238.143 63.3995L238.143 5.63726C238.143 2.63567 235.709 0.183152 232.689 0.183151C229.688 0.183151 227.235 2.61737 227.235 5.63726L227.235 63.3995C227.235 66.4194 229.669 68.8536 232.689 68.8536ZM187.516 56.1156L209.097 34.5184L187.484 12.9211L165.903 34.5183L187.516 56.1156ZM187.613 0.209994C187.715 0.204307 187.818 0.201463 187.922 0.201463C189.331 0.201464 190.722 0.732234 191.783 1.79377L220.664 30.6749C222.788 32.798 222.788 36.2571 220.664 38.3802L191.783 67.2613C190.584 68.4608 188.958 68.9826 187.387 68.8267C187.285 68.8324 187.182 68.8353 187.079 68.8353C185.669 68.8353 184.278 68.3045 183.217 67.2429L154.336 38.3618C152.213 36.2388 152.213 32.7796 154.336 30.6565L183.217 1.77541C184.416 0.575928 186.042 0.0541221 187.613 0.209994ZM142.311 0.183105C139.309 0.183105 136.857 2.61732 136.857 5.63721L136.857 63.3995C136.857 66.401 139.291 68.8536 142.311 68.8536C145.313 68.8536 147.765 66.4193 147.765 63.3995L147.765 5.63721C147.765 2.61732 145.331 0.183105 142.311 0.183105ZM119.854 34.5183C119.854 47.3865 109.417 57.8767 96.5686 57.9631C96.422 57.9514 96.2738 57.9454 96.1241 57.9454C83.2026 57.9454 72.6788 47.4398 72.6788 34.5184C72.6788 21.6503 83.1159 11.16 95.9642 11.0736C96.1108 11.0853 96.259 11.0913 96.4087 11.0913C109.33 11.0913 119.854 21.5969 119.854 34.5183ZM96.4087 0.183105C96.3608 0.183105 96.313 0.183717 96.2655 0.184934C96.2185 0.183748 96.1714 0.183151 96.1241 0.183151C77.1812 0.18315 61.7888 15.5937 61.7888 34.5184C61.7888 53.4613 77.1994 68.8536 96.1241 68.8536C96.172 68.8536 96.2197 68.853 96.2673 68.8518C96.3143 68.853 96.3614 68.8536 96.4087 68.8536C115.352 68.8536 130.744 53.443 130.744 34.5183C130.744 15.5754 115.333 0.183105 96.4087 0.183105ZM50.2218 68.8536C53.2234 68.8536 55.6759 66.4194 55.6759 63.3995L55.6759 5.63726C55.6759 2.63567 53.2417 0.183152 50.2218 0.183151C47.2202 0.183151 44.7677 2.61737 44.7677 5.63726L44.7677 63.3995C44.7677 66.4194 47.2019 68.8536 50.2218 68.8536ZM26.6299 34.5184L1.61062 59.556C-0.512454 61.6791 -0.512454 65.1382 1.61062 67.2613C3.73367 69.3844 7.19284 69.3844 9.31592 67.2613L38.197 38.3802C40.3201 36.2571 40.3201 32.798 38.197 30.6749L9.31592 1.79377C8.25436 0.732234 6.8634 0.201464 5.4541 0.201463C4.04483 0.201463 2.67215 0.732234 1.59232 1.79377C-0.530762 3.91684 -0.530762 7.37599 1.59232 9.49906L26.6299 34.5184Z" fill="#4AB4F0" fill-opacity="0.2"/>
</svg>
