<svg width="215" height="61" viewBox="0 0 215 61" fill="none" xmlns="http://www.w3.org/2000/svg">
<path d="M25.2527 23.7908L18.9384 20L12.6242 23.8611L6.31425 20L0 23.7908L12.6242 31.2931L25.2527 23.7908Z" fill="#4AB4F0"/>
<path d="M12.6242 34.2132L6.31425 30.3521L0 34.1384L12.6242 41.6452L25.2527 34.1384L18.9384 30.3521L12.6242 34.2132Z" fill="#4AB4F0"/>
<path d="M99.9371 19C98.871 19 98 19.8645 98 20.9371V41.4518C98 42.5178 98.8645 43.3889 99.9371 43.3889C101.003 43.3889 101.874 42.5243 101.874 41.4518V20.9371C101.874 19.8645 101.01 19 99.9371 19Z" fill="#4AB4F0"/>
<g filter="url(#filter0_d_262_2894)">
<path d="M134.207 20C133.315 20 132.587 20.7227 132.587 21.6194V38.7695C132.587 39.6607 133.31 40.3889 134.207 40.3889C135.098 40.3889 135.826 39.6661 135.826 38.7695V21.6194C135.826 20.7227 135.103 20 134.207 20Z" fill="#4AB4F0"/>
<path d="M141.211 30.1944L148.64 22.7605C149.27 22.1302 149.27 21.1031 148.64 20.4728C148.009 19.8424 146.982 19.8424 146.352 20.4728L137.777 29.0478C137.146 29.6782 137.146 30.7052 137.777 31.3356L146.352 39.9107C146.667 40.2258 147.08 40.3834 147.499 40.3834C147.917 40.3834 148.324 40.2258 148.645 39.9107C149.275 39.2803 149.275 38.2532 148.645 37.6229L141.211 30.1944Z" fill="#4AB4F0"/>
<path d="M120.578 20C119.681 20 118.958 20.7227 118.958 21.6194C118.958 22.516 119.681 23.2387 120.578 23.2387C124.414 23.2387 127.539 26.3579 127.539 30.1944C127.539 34.0309 124.414 37.1556 120.578 37.1556C119.681 37.1501 118.958 37.8729 118.958 38.7695C118.958 39.6661 119.681 40.3889 120.578 40.3889C126.202 40.3889 130.772 35.8133 130.772 30.1944C130.772 24.5701 126.197 20 120.578 20Z" fill="#4AB4F0"/>
</g>
<path d="M41.582 35.782V37H34.47V27.2H41.386V28.418H35.87V31.428H40.784V32.618H35.87V35.782H41.582ZM43.6529 26.612H44.9969V37H43.6529V26.612ZM50.2651 29.51C51.2917 29.51 52.0757 29.762 52.6171 30.266C53.1677 30.77 53.4431 31.5213 53.4431 32.52V37H52.1691V36.02C51.9451 36.3653 51.6231 36.6313 51.2031 36.818C50.7924 36.9953 50.3024 37.084 49.7331 37.084C48.9024 37.084 48.2351 36.8833 47.7311 36.482C47.2364 36.0807 46.9891 35.5533 46.9891 34.9C46.9891 34.2467 47.2271 33.724 47.7031 33.332C48.1791 32.9307 48.9351 32.73 49.9711 32.73H52.0991V32.464C52.0991 31.8853 51.9311 31.442 51.5951 31.134C51.2591 30.826 50.7644 30.672 50.1111 30.672C49.6724 30.672 49.2431 30.7467 48.8231 30.896C48.4031 31.036 48.0484 31.2273 47.7591 31.47L47.1991 30.462C47.5817 30.154 48.0391 29.9207 48.5711 29.762C49.1031 29.594 49.6677 29.51 50.2651 29.51ZM49.9571 36.048C50.4704 36.048 50.9137 35.936 51.2871 35.712C51.6604 35.4787 51.9311 35.152 52.0991 34.732V33.696H50.0271C48.8884 33.696 48.3191 34.0787 48.3191 34.844C48.3191 35.2173 48.4637 35.5113 48.7531 35.726C49.0424 35.9407 49.4437 36.048 49.9571 36.048ZM58.0583 37.084C57.4516 37.084 56.8683 37.0047 56.3083 36.846C55.7483 36.678 55.3096 36.468 54.9923 36.216L55.5523 35.152C55.8789 35.3853 56.2756 35.572 56.7423 35.712C57.2089 35.852 57.6803 35.922 58.1562 35.922C59.3323 35.922 59.9203 35.586 59.9203 34.914C59.9203 34.69 59.8409 34.5127 59.6823 34.382C59.5236 34.2513 59.3229 34.158 59.0803 34.102C58.8469 34.0367 58.5109 33.9667 58.0723 33.892C57.4749 33.7987 56.9849 33.6913 56.6023 33.57C56.2289 33.4487 55.9069 33.2433 55.6363 32.954C55.3656 32.6647 55.2303 32.2587 55.2303 31.736C55.2303 31.064 55.5103 30.5273 56.0703 30.126C56.6303 29.7153 57.3816 29.51 58.3243 29.51C58.8189 29.51 59.3136 29.5707 59.8083 29.692C60.3029 29.8133 60.7089 29.9767 61.0263 30.182L60.4523 31.246C59.8456 30.854 59.1316 30.658 58.3103 30.658C57.7409 30.658 57.3069 30.7513 57.0083 30.938C56.7096 31.1247 56.5603 31.372 56.5603 31.68C56.5603 31.9227 56.6443 32.114 56.8123 32.254C56.9803 32.394 57.1856 32.4967 57.4283 32.562C57.6803 32.6273 58.0303 32.702 58.4783 32.786C59.0756 32.8887 59.5563 33.0007 59.9203 33.122C60.2936 33.234 60.6109 33.43 60.8723 33.71C61.1336 33.99 61.2643 34.382 61.2643 34.886C61.2643 35.558 60.9749 36.0947 60.3963 36.496C59.8269 36.888 59.0476 37.084 58.0583 37.084ZM67.1159 36.566C66.9199 36.734 66.6773 36.8647 66.3879 36.958C66.0986 37.042 65.7999 37.084 65.4919 37.084C64.7453 37.084 64.1666 36.8833 63.7559 36.482C63.3453 36.0807 63.1399 35.5067 63.1399 34.76V30.686H61.8799V29.58H63.1399V27.956H64.4839V29.58H66.6119V30.686H64.4839V34.704C64.4839 35.1053 64.5819 35.4133 64.7779 35.628C64.9833 35.8427 65.2726 35.95 65.6459 35.95C66.0566 35.95 66.4066 35.8333 66.6959 35.6L67.1159 36.566ZM71.6727 37.084C70.9354 37.084 70.2727 36.9207 69.6847 36.594C69.0967 36.2673 68.6347 35.8193 68.2987 35.25C67.972 34.6713 67.8087 34.018 67.8087 33.29C67.8087 32.562 67.972 31.9133 68.2987 31.344C68.6347 30.7653 69.0967 30.3173 69.6847 30C70.2727 29.6733 70.9354 29.51 71.6727 29.51C72.41 29.51 73.068 29.6733 73.6467 30C74.2347 30.3173 74.692 30.7653 75.0187 31.344C75.3547 31.9133 75.5227 32.562 75.5227 33.29C75.5227 34.018 75.3547 34.6713 75.0187 35.25C74.692 35.8193 74.2347 36.2673 73.6467 36.594C73.068 36.9207 72.41 37.084 71.6727 37.084ZM71.6727 35.908C72.1487 35.908 72.5734 35.8007 72.9467 35.586C73.3294 35.362 73.628 35.054 73.8427 34.662C74.0574 34.2607 74.1647 33.8033 74.1647 33.29C74.1647 32.7767 74.0574 32.324 73.8427 31.932C73.628 31.5307 73.3294 31.2227 72.9467 31.008C72.5734 30.7933 72.1487 30.686 71.6727 30.686C71.1967 30.686 70.7674 30.7933 70.3847 31.008C70.0114 31.2227 69.7127 31.5307 69.4887 31.932C69.274 32.324 69.1667 32.7767 69.1667 33.29C69.1667 33.8033 69.274 34.2607 69.4887 34.662C69.7127 35.054 70.0114 35.362 70.3847 35.586C70.7674 35.8007 71.1967 35.908 71.6727 35.908ZM79.5094 37.084C78.9028 37.084 78.3194 37.0047 77.7594 36.846C77.1994 36.678 76.7608 36.468 76.4434 36.216L77.0034 35.152C77.3301 35.3853 77.7268 35.572 78.1934 35.712C78.6601 35.852 79.1314 35.922 79.6074 35.922C80.7834 35.922 81.3714 35.586 81.3714 34.914C81.3714 34.69 81.2921 34.5127 81.1334 34.382C80.9748 34.2513 80.7741 34.158 80.5314 34.102C80.2981 34.0367 79.9621 33.9667 79.5234 33.892C78.9261 33.7987 78.4361 33.6913 78.0534 33.57C77.6801 33.4487 77.3581 33.2433 77.0874 32.954C76.8168 32.6647 76.6814 32.2587 76.6814 31.736C76.6814 31.064 76.9614 30.5273 77.5214 30.126C78.0814 29.7153 78.8328 29.51 79.7754 29.51C80.2701 29.51 80.7648 29.5707 81.2594 29.692C81.7541 29.8133 82.1601 29.9767 82.4774 30.182L81.9034 31.246C81.2968 30.854 80.5828 30.658 79.7614 30.658C79.1921 30.658 78.7581 30.7513 78.4594 30.938C78.1608 31.1247 78.0114 31.372 78.0114 31.68C78.0114 31.9227 78.0954 32.114 78.2634 32.254C78.4314 32.394 78.6368 32.4967 78.8794 32.562C79.1314 32.6273 79.4814 32.702 79.9294 32.786C80.5268 32.8887 81.0074 33.0007 81.3714 33.122C81.7448 33.234 82.0621 33.43 82.3234 33.71C82.5848 33.99 82.7154 34.382 82.7154 34.886C82.7154 35.558 82.4261 36.0947 81.8474 36.496C81.2781 36.888 80.4988 37.084 79.5094 37.084Z" fill="#4AB4F0"/>
<path d="M162.662 32.646L160.87 34.466V37H159.47V27.2H160.87V32.674L166.19 27.2H167.786L163.6 31.61L168.052 37H166.414L162.662 32.646ZM172.615 33.612V37H171.229V33.584L167.337 27.2H168.835L171.971 32.366L175.121 27.2H176.507L172.615 33.612ZM181.885 37.112C180.905 37.112 180.019 36.8973 179.225 36.468C178.441 36.0293 177.825 35.432 177.377 34.676C176.929 33.9107 176.705 33.052 176.705 32.1C176.705 31.148 176.929 30.294 177.377 29.538C177.825 28.7727 178.446 28.1753 179.239 27.746C180.033 27.3073 180.919 27.088 181.899 27.088C182.665 27.088 183.365 27.2187 183.999 27.48C184.634 27.732 185.175 28.11 185.623 28.614L184.713 29.496C183.976 28.7213 183.057 28.334 181.955 28.334C181.227 28.334 180.569 28.4973 179.981 28.824C179.393 29.1507 178.931 29.6033 178.595 30.182C178.269 30.7513 178.105 31.3907 178.105 32.1C178.105 32.8093 178.269 33.4533 178.595 34.032C178.931 34.6013 179.393 35.0493 179.981 35.376C180.569 35.7027 181.227 35.866 181.955 35.866C183.047 35.866 183.967 35.474 184.713 34.69L185.623 35.572C185.175 36.076 184.629 36.4587 183.985 36.72C183.351 36.9813 182.651 37.112 181.885 37.112ZM186.907 32.576H190.673V33.738H186.907V32.576ZM202.025 29.51C202.958 29.51 203.695 29.7807 204.237 30.322C204.787 30.8633 205.063 31.666 205.063 32.73V37H203.719V32.884C203.719 32.1653 203.551 31.624 203.215 31.26C202.888 30.896 202.417 30.714 201.801 30.714C201.119 30.714 200.578 30.9287 200.177 31.358C199.775 31.778 199.575 32.3847 199.575 33.178V37H198.231V32.884C198.231 32.1653 198.063 31.624 197.727 31.26C197.4 30.896 196.929 30.714 196.313 30.714C195.631 30.714 195.09 30.9287 194.689 31.358C194.287 31.778 194.087 32.3847 194.087 33.178V37H192.743V29.58H194.031V30.686C194.301 30.3033 194.656 30.014 195.095 29.818C195.533 29.6127 196.033 29.51 196.593 29.51C197.171 29.51 197.685 29.6267 198.133 29.86C198.581 30.0933 198.926 30.434 199.169 30.882C199.449 30.4527 199.836 30.1167 200.331 29.874C200.835 29.6313 201.399 29.51 202.025 29.51ZM214.283 33.332C214.283 33.4347 214.273 33.57 214.255 33.738H208.235C208.319 34.3913 208.603 34.9187 209.089 35.32C209.583 35.712 210.195 35.908 210.923 35.908C211.809 35.908 212.523 35.6093 213.065 35.012L213.807 35.88C213.471 36.272 213.051 36.5707 212.547 36.776C212.052 36.9813 211.497 37.084 210.881 37.084C210.097 37.084 209.401 36.9253 208.795 36.608C208.188 36.2813 207.717 35.8287 207.381 35.25C207.054 34.6713 206.891 34.018 206.891 33.29C206.891 32.5713 207.049 31.9227 207.367 31.344C207.693 30.7653 208.137 30.3173 208.697 30C209.266 29.6733 209.905 29.51 210.615 29.51C211.324 29.51 211.954 29.6733 212.505 30C213.065 30.3173 213.499 30.7653 213.807 31.344C214.124 31.9227 214.283 32.5853 214.283 33.332ZM210.615 30.644C209.971 30.644 209.429 30.84 208.991 31.232C208.561 31.624 208.309 32.1373 208.235 32.772H212.995C212.92 32.1467 212.663 31.638 212.225 31.246C211.795 30.8447 211.259 30.644 210.615 30.644Z" fill="#4AB4F0"/>
<defs>
<filter id="filter0_d_262_2894" x="98.9584" y="0" width="70.1594" height="60.3889" filterUnits="userSpaceOnUse" color-interpolation-filters="sRGB">
<feFlood flood-opacity="0" result="BackgroundImageFix"/>
<feColorMatrix in="SourceAlpha" type="matrix" values="0 0 0 0 0 0 0 0 0 0 0 0 0 0 0 0 0 0 127 0" result="hardAlpha"/>
<feOffset/>
<feGaussianBlur stdDeviation="10"/>
<feComposite in2="hardAlpha" operator="out"/>
<feColorMatrix type="matrix" values="0 0 0 0 0.290196 0 0 0 0 0.705882 0 0 0 0 0.941176 0 0 0 0.5 0"/>
<feBlend mode="normal" in2="BackgroundImageFix" result="effect1_dropShadow_262_2894"/>
<feBlend mode="normal" in="SourceGraphic" in2="effect1_dropShadow_262_2894" result="shape"/>
</filter>
</defs>
</svg>
