<svg width="251" height="93" viewBox="0 0 251 93" fill="none" xmlns="http://www.w3.org/2000/svg">
<path d="M22 39.7102C22 41.5317 23.4179 43 25.177 43C26.936 43 28.3539 41.5317 28.3539 39.7102C28.3539 31.9163 34.4733 25.5685 42 25.5685C49.5267 25.5685 55.6567 31.9163 55.6567 39.7102C55.6461 41.5317 57.064 43 58.823 43C60.5821 43 62 41.5317 62 39.7102C62 28.2843 53.0235 19 42 19C30.9659 19 22 28.2953 22 39.7102Z" fill="#4AB4F0"/>
<path d="M54 1.91904C54 0.856486 53.1493 -3.71873e-08 52.0938 -8.33219e-08C51.0384 -1.29457e-07 50.1876 0.856486 50.1876 1.91904C50.1876 6.4655 46.516 10.1684 42 10.1684C37.484 10.1684 33.806 6.4655 33.806 1.91904C33.8124 0.856485 32.9616 -9.19617e-07 31.9062 -9.65751e-07C30.8507 -1.01189e-06 30 0.856485 30 1.91904C30 8.58418 35.3859 14 42 14C48.6205 14 54 8.57774 54 1.91904Z" fill="#4AB4F0"/>
<g filter="url(#filter0_bd_262_2867)">
<rect x="20" y="32" width="211" height="41" rx="20" fill="url(#paint0_linear_262_2867)" shape-rendering="crispEdges"/>
<rect x="20.5" y="32.5" width="210" height="40" rx="19.5" stroke="url(#paint1_linear_262_2867)" shape-rendering="crispEdges"/>
</g>
<path d="M36.695 58.18C35.865 58.18 35.06 58.07 34.28 57.85C33.51 57.62 32.89 57.325 32.42 56.965L33.245 55.135C33.695 55.465 34.23 55.73 34.85 55.93C35.47 56.13 36.09 56.23 36.71 56.23C37.4 56.23 37.91 56.13 38.24 55.93C38.57 55.72 38.735 55.445 38.735 55.105C38.735 54.855 38.635 54.65 38.435 54.49C38.245 54.32 37.995 54.185 37.685 54.085C37.385 53.985 36.975 53.875 36.455 53.755C35.655 53.565 35 53.375 34.49 53.185C33.98 52.995 33.54 52.69 33.17 52.27C32.81 51.85 32.63 51.29 32.63 50.59C32.63 49.98 32.795 49.43 33.125 48.94C33.455 48.44 33.95 48.045 34.61 47.755C35.28 47.465 36.095 47.32 37.055 47.32C37.725 47.32 38.38 47.4 39.02 47.56C39.66 47.72 40.22 47.95 40.7 48.25L39.95 50.095C38.98 49.545 38.01 49.27 37.04 49.27C36.36 49.27 35.855 49.38 35.525 49.6C35.205 49.82 35.045 50.11 35.045 50.47C35.045 50.83 35.23 51.1 35.6 51.28C35.98 51.45 36.555 51.62 37.325 51.79C38.125 51.98 38.78 52.17 39.29 52.36C39.8 52.55 40.235 52.85 40.595 53.26C40.965 53.67 41.15 54.225 41.15 54.925C41.15 55.525 40.98 56.075 40.64 56.575C40.31 57.065 39.81 57.455 39.14 57.745C38.47 58.035 37.655 58.18 36.695 58.18ZM42.6454 49.93H44.9854V58H42.6454V49.93ZM43.8154 48.805C43.3854 48.805 43.0354 48.68 42.7654 48.43C42.4954 48.18 42.3604 47.87 42.3604 47.5C42.3604 47.13 42.4954 46.82 42.7654 46.57C43.0354 46.32 43.3854 46.195 43.8154 46.195C44.2454 46.195 44.5954 46.315 44.8654 46.555C45.1354 46.795 45.2704 47.095 45.2704 47.455C45.2704 47.845 45.1354 48.17 44.8654 48.43C44.5954 48.68 44.2454 48.805 43.8154 48.805ZM55.4821 49.93V56.65C55.4821 58.13 55.0971 59.23 54.3271 59.95C53.5571 60.67 52.4321 61.03 50.9521 61.03C50.1721 61.03 49.4321 60.935 48.7321 60.745C48.0321 60.555 47.4521 60.28 46.9921 59.92L47.9221 58.24C48.2621 58.52 48.6921 58.74 49.2121 58.9C49.7321 59.07 50.2521 59.155 50.7721 59.155C51.5821 59.155 52.1771 58.97 52.5571 58.6C52.9471 58.24 53.1421 57.69 53.1421 56.95V56.605C52.5321 57.275 51.6821 57.61 50.5921 57.61C49.8521 57.61 49.1721 57.45 48.5521 57.13C47.9421 56.8 47.4571 56.34 47.0971 55.75C46.7371 55.16 46.5571 54.48 46.5571 53.71C46.5571 52.94 46.7371 52.26 47.0971 51.67C47.4571 51.08 47.9421 50.625 48.5521 50.305C49.1721 49.975 49.8521 49.81 50.5921 49.81C51.7621 49.81 52.6521 50.195 53.2621 50.965V49.93H55.4821ZM51.0571 55.69C51.6771 55.69 52.1821 55.51 52.5721 55.15C52.9721 54.78 53.1721 54.3 53.1721 53.71C53.1721 53.12 52.9721 52.645 52.5721 52.285C52.1821 51.915 51.6771 51.73 51.0571 51.73C50.4371 51.73 49.9271 51.915 49.5271 52.285C49.1271 52.645 48.9271 53.12 48.9271 53.71C48.9271 54.3 49.1271 54.78 49.5271 55.15C49.9271 55.51 50.4371 55.69 51.0571 55.69ZM62.5651 49.81C63.5651 49.81 64.3701 50.11 64.9801 50.71C65.6001 51.31 65.9101 52.2 65.9101 53.38V58H63.5701V53.74C63.5701 53.1 63.4301 52.625 63.1501 52.315C62.8701 51.995 62.4651 51.835 61.9351 51.835C61.3451 51.835 60.8751 52.02 60.5251 52.39C60.1751 52.75 60.0001 53.29 60.0001 54.01V58H57.6601V49.93H59.8951V50.875C60.2051 50.535 60.5901 50.275 61.0501 50.095C61.5101 49.905 62.0151 49.81 62.5651 49.81ZM72.2792 49.93H74.6192V58H72.2792V49.93ZM73.4492 48.805C73.0192 48.805 72.6692 48.68 72.3992 48.43C72.1292 48.18 71.9942 47.87 71.9942 47.5C71.9942 47.13 72.1292 46.82 72.3992 46.57C72.6692 46.32 73.0192 46.195 73.4492 46.195C73.8792 46.195 74.2292 46.315 74.4992 46.555C74.7692 46.795 74.9042 47.095 74.9042 47.455C74.9042 47.845 74.7692 48.17 74.4992 48.43C74.2292 48.68 73.8792 48.805 73.4492 48.805ZM81.6959 49.81C82.6959 49.81 83.5009 50.11 84.1109 50.71C84.7309 51.31 85.0409 52.2 85.0409 53.38V58H82.7009V53.74C82.7009 53.1 82.5609 52.625 82.2809 52.315C82.0009 51.995 81.5959 51.835 81.0659 51.835C80.4759 51.835 80.0059 52.02 79.6559 52.39C79.3059 52.75 79.1309 53.29 79.1309 54.01V58H76.7909V49.93H79.0259V50.875C79.3359 50.535 79.7209 50.275 80.1809 50.095C80.6409 49.905 81.1459 49.81 81.6959 49.81ZM104.37 49.93L101.445 58H99.1951L97.3801 52.99L95.5051 58H93.2551L90.3451 49.93H92.5501L94.4551 55.39L96.4351 49.93H98.4151L100.335 55.39L102.3 49.93H104.37ZM105.458 49.93H107.798V58H105.458V49.93ZM106.628 48.805C106.198 48.805 105.848 48.68 105.578 48.43C105.308 48.18 105.173 47.87 105.173 47.5C105.173 47.13 105.308 46.82 105.578 46.57C105.848 46.32 106.198 46.195 106.628 46.195C107.058 46.195 107.408 46.315 107.678 46.555C107.948 46.795 108.083 47.095 108.083 47.455C108.083 47.845 107.948 48.17 107.678 48.43C107.408 48.68 107.058 48.805 106.628 48.805ZM115.175 57.61C114.945 57.78 114.66 57.91 114.32 58C113.99 58.08 113.64 58.12 113.27 58.12C112.31 58.12 111.565 57.875 111.035 57.385C110.515 56.895 110.255 56.175 110.255 55.225V51.91H109.01V50.11H110.255V48.145H112.595V50.11H114.605V51.91H112.595V55.195C112.595 55.535 112.68 55.8 112.85 55.99C113.03 56.17 113.28 56.26 113.6 56.26C113.97 56.26 114.285 56.16 114.545 55.96L115.175 57.61ZM121.393 49.81C122.393 49.81 123.198 50.11 123.808 50.71C124.428 51.31 124.738 52.2 124.738 53.38V58H122.398V53.74C122.398 53.1 122.258 52.625 121.978 52.315C121.698 51.995 121.293 51.835 120.763 51.835C120.173 51.835 119.703 52.02 119.353 52.39C119.003 52.75 118.828 53.29 118.828 54.01V58H116.488V46.87H118.828V50.77C119.138 50.46 119.513 50.225 119.953 50.065C120.393 49.895 120.873 49.81 121.393 49.81ZM139.402 56.05V58H131.272V47.5H139.207V49.45H133.687V51.73H138.562V53.62H133.687V56.05H139.402ZM141.171 46.87H143.511V58H141.171V46.87ZM148.938 49.81C150.188 49.81 151.148 50.11 151.818 50.71C152.488 51.3 152.823 52.195 152.823 53.395V58H150.633V56.995C150.193 57.745 149.373 58.12 148.173 58.12C147.553 58.12 147.013 58.015 146.553 57.805C146.103 57.595 145.758 57.305 145.518 56.935C145.278 56.565 145.158 56.145 145.158 55.675C145.158 54.925 145.438 54.335 145.998 53.905C146.568 53.475 147.443 53.26 148.623 53.26H150.483C150.483 52.75 150.328 52.36 150.018 52.09C149.708 51.81 149.243 51.67 148.623 51.67C148.193 51.67 147.768 51.74 147.348 51.88C146.938 52.01 146.588 52.19 146.298 52.42L145.458 50.785C145.898 50.475 146.423 50.235 147.033 50.065C147.653 49.895 148.288 49.81 148.938 49.81ZM148.758 56.545C149.158 56.545 149.513 56.455 149.823 56.275C150.133 56.085 150.353 55.81 150.483 55.45V54.625H148.878C147.918 54.625 147.438 54.94 147.438 55.57C147.438 55.87 147.553 56.11 147.783 56.29C148.023 56.46 148.348 56.545 148.758 56.545ZM157.655 58.12C156.985 58.12 156.33 58.04 155.69 57.88C155.05 57.71 154.54 57.5 154.16 57.25L154.94 55.57C155.3 55.8 155.735 55.99 156.245 56.14C156.755 56.28 157.255 56.35 157.745 56.35C158.735 56.35 159.23 56.105 159.23 55.615C159.23 55.385 159.095 55.22 158.825 55.12C158.555 55.02 158.14 54.935 157.58 54.865C156.92 54.765 156.375 54.65 155.945 54.52C155.515 54.39 155.14 54.16 154.82 53.83C154.51 53.5 154.355 53.03 154.355 52.42C154.355 51.91 154.5 51.46 154.79 51.07C155.09 50.67 155.52 50.36 156.08 50.14C156.65 49.92 157.32 49.81 158.09 49.81C158.66 49.81 159.225 49.875 159.785 50.005C160.355 50.125 160.825 50.295 161.195 50.515L160.415 52.18C159.705 51.78 158.93 51.58 158.09 51.58C157.59 51.58 157.215 51.65 156.965 51.79C156.715 51.93 156.59 52.11 156.59 52.33C156.59 52.58 156.725 52.755 156.995 52.855C157.265 52.955 157.695 53.05 158.285 53.14C158.945 53.25 159.485 53.37 159.905 53.5C160.325 53.62 160.69 53.845 161 54.175C161.31 54.505 161.465 54.965 161.465 55.555C161.465 56.055 161.315 56.5 161.015 56.89C160.715 57.28 160.275 57.585 159.695 57.805C159.125 58.015 158.445 58.12 157.655 58.12ZM168.114 57.61C167.884 57.78 167.599 57.91 167.259 58C166.929 58.08 166.579 58.12 166.209 58.12C165.249 58.12 164.504 57.875 163.974 57.385C163.454 56.895 163.194 56.175 163.194 55.225V51.91H161.949V50.11H163.194V48.145H165.534V50.11H167.544V51.91H165.534V55.195C165.534 55.535 165.619 55.8 165.789 55.99C165.969 56.17 166.219 56.26 166.539 56.26C166.909 56.26 167.224 56.16 167.484 55.96L168.114 57.61ZM173.019 58.12C172.169 58.12 171.404 57.945 170.724 57.595C170.054 57.235 169.529 56.74 169.149 56.11C168.769 55.48 168.579 54.765 168.579 53.965C168.579 53.165 168.769 52.45 169.149 51.82C169.529 51.19 170.054 50.7 170.724 50.35C171.404 49.99 172.169 49.81 173.019 49.81C173.869 49.81 174.629 49.99 175.299 50.35C175.969 50.7 176.494 51.19 176.874 51.82C177.254 52.45 177.444 53.165 177.444 53.965C177.444 54.765 177.254 55.48 176.874 56.11C176.494 56.74 175.969 57.235 175.299 57.595C174.629 57.945 173.869 58.12 173.019 58.12ZM173.019 56.2C173.619 56.2 174.109 56 174.489 55.6C174.879 55.19 175.074 54.645 175.074 53.965C175.074 53.285 174.879 52.745 174.489 52.345C174.109 51.935 173.619 51.73 173.019 51.73C172.419 51.73 171.924 51.935 171.534 52.345C171.144 52.745 170.949 53.285 170.949 53.965C170.949 54.645 171.144 55.19 171.534 55.6C171.924 56 172.419 56.2 173.019 56.2ZM181.723 58.12C181.053 58.12 180.398 58.04 179.758 57.88C179.118 57.71 178.608 57.5 178.228 57.25L179.008 55.57C179.368 55.8 179.803 55.99 180.313 56.14C180.823 56.28 181.323 56.35 181.813 56.35C182.803 56.35 183.298 56.105 183.298 55.615C183.298 55.385 183.163 55.22 182.893 55.12C182.623 55.02 182.208 54.935 181.648 54.865C180.988 54.765 180.443 54.65 180.013 54.52C179.583 54.39 179.208 54.16 178.888 53.83C178.578 53.5 178.423 53.03 178.423 52.42C178.423 51.91 178.568 51.46 178.858 51.07C179.158 50.67 179.588 50.36 180.148 50.14C180.718 49.92 181.388 49.81 182.158 49.81C182.728 49.81 183.293 49.875 183.853 50.005C184.423 50.125 184.893 50.295 185.263 50.515L184.483 52.18C183.773 51.78 182.998 51.58 182.158 51.58C181.658 51.58 181.283 51.65 181.033 51.79C180.783 51.93 180.658 52.11 180.658 52.33C180.658 52.58 180.793 52.755 181.063 52.855C181.333 52.955 181.763 53.05 182.353 53.14C183.013 53.25 183.553 53.37 183.973 53.5C184.393 53.62 184.758 53.845 185.068 54.175C185.378 54.505 185.533 54.965 185.533 55.555C185.533 56.055 185.383 56.5 185.083 56.89C184.783 57.28 184.343 57.585 183.763 57.805C183.193 58.015 182.513 58.12 181.723 58.12ZM191.39 47.5H196.16C197.3 47.5 198.305 47.72 199.175 48.16C200.055 48.59 200.735 49.2 201.215 49.99C201.705 50.78 201.95 51.7 201.95 52.75C201.95 53.8 201.705 54.72 201.215 55.51C200.735 56.3 200.055 56.915 199.175 57.355C198.305 57.785 197.3 58 196.16 58H191.39V47.5ZM196.04 56.005C197.09 56.005 197.925 55.715 198.545 55.135C199.175 54.545 199.49 53.75 199.49 52.75C199.49 51.75 199.175 50.96 198.545 50.38C197.925 49.79 197.09 49.495 196.04 49.495H193.82V56.005H196.04ZM203.782 47.5H206.212V58H203.782V47.5ZM208.704 47.5H213.474C214.614 47.5 215.619 47.72 216.489 48.16C217.369 48.59 218.049 49.2 218.529 49.99C219.019 50.78 219.264 51.7 219.264 52.75C219.264 53.8 219.019 54.72 218.529 55.51C218.049 56.3 217.369 56.915 216.489 57.355C215.619 57.785 214.614 58 213.474 58H208.704V47.5ZM213.354 56.005C214.404 56.005 215.239 55.715 215.859 55.135C216.489 54.545 216.804 53.75 216.804 52.75C216.804 51.75 216.489 50.96 215.859 50.38C215.239 49.79 214.404 49.495 213.354 49.495H211.134V56.005H213.354Z" fill="#4AB4F0"/>
<defs>
<filter id="filter0_bd_262_2867" x="0" y="12" width="251" height="81" filterUnits="userSpaceOnUse" color-interpolation-filters="sRGB">
<feFlood flood-opacity="0" result="BackgroundImageFix"/>
<feGaussianBlur in="BackgroundImage" stdDeviation="2"/>
<feComposite in2="SourceAlpha" operator="in" result="effect1_backgroundBlur_262_2867"/>
<feColorMatrix in="SourceAlpha" type="matrix" values="0 0 0 0 0 0 0 0 0 0 0 0 0 0 0 0 0 0 127 0" result="hardAlpha"/>
<feOffset/>
<feGaussianBlur stdDeviation="10"/>
<feComposite in2="hardAlpha" operator="out"/>
<feColorMatrix type="matrix" values="0 0 0 0 0.290196 0 0 0 0 0.705882 0 0 0 0 0.941176 0 0 0 0.5 0"/>
<feBlend mode="normal" in2="effect1_backgroundBlur_262_2867" result="effect2_dropShadow_262_2867"/>
<feBlend mode="normal" in="SourceGraphic" in2="effect2_dropShadow_262_2867" result="shape"/>
</filter>
<linearGradient id="paint0_linear_262_2867" x1="125.5" y1="32" x2="125.5" y2="73" gradientUnits="userSpaceOnUse">
<stop stop-color="#4AB4F0" stop-opacity="0.5"/>
<stop offset="1" stop-color="#4AB4F0" stop-opacity="0.3"/>
</linearGradient>
<linearGradient id="paint1_linear_262_2867" x1="125.5" y1="32" x2="125.5" y2="73" gradientUnits="userSpaceOnUse">
<stop stop-color="#4AB4F0"/>
<stop offset="1" stop-color="#4AB4F0" stop-opacity="0.5"/>
</linearGradient>
</defs>
</svg>
