<svg width="54" height="54" viewBox="0 0 54 54" fill="none" xmlns="http://www.w3.org/2000/svg">
<path d="M3.92303e-08 50.7102C1.75088e-08 52.5317 1.41791 54 3.17697 54C4.93603 54 6.35394 52.5317 6.35394 50.7102C6.35394 42.9163 12.4733 36.5685 20 36.5685C27.5267 36.5685 33.6567 42.9163 33.6567 50.7102C33.6461 52.5317 35.064 54 36.823 54C38.5821 54 40 52.5317 40 50.7102C40 39.2843 31.0235 30 20 30C8.96589 30 1.75352e-07 39.2953 3.92303e-08 50.7102Z" fill="#4AB4F0"/>
<path d="M32 12.919C32 11.8565 31.1493 11 30.0938 11C29.0384 11 28.1876 11.8565 28.1876 12.919C28.1876 17.4655 24.516 21.1684 20 21.1684C15.484 21.1684 11.806 17.4655 11.806 12.919C11.8124 11.8565 10.9616 11 9.90619 11C8.85075 11 8 11.8565 8 12.919C8 19.5842 13.3859 25 20 25C26.6205 25 32 19.5777 32 12.919Z" fill="#4AB4F0"/>
<g filter="url(#filter0_bd_262_2865)">
<path d="M44 17.9842L43.9999 17.9614C43.9705 11.3572 38.596 6 32 6C25.3965 6 20.0276 11.3654 20.0001 17.9648L20 17.9842L20 17.9956L20 18.0158L20.0001 18.0387C20.0296 24.6429 25.4041 30 32 30C38.6034 30 43.9723 24.6347 43.9999 18.0353L44 18.0158L44 18.0042L44 17.9842Z" fill="url(#paint0_linear_262_2865)" shape-rendering="crispEdges"/>
<path d="M43.7499 17.9625L43.7499 17.9629L43.75 17.9839V17.9849L43.75 18.0039V18.0044L43.75 18.0154V18.016L43.7499 18.034L43.7499 18.0342C43.7229 24.4964 38.4653 29.75 32 29.75C25.542 29.75 20.2789 24.5044 20.2501 18.0376L20.2501 18.0372L20.25 18.016L20.25 18.0152L20.25 17.9959L20.25 17.9955L20.25 17.9847L20.25 17.984L20.2501 17.9661L20.2501 17.9658C20.2771 11.5036 25.5347 6.25 32 6.25C38.458 6.25 43.7211 11.4956 43.7499 17.9625Z" stroke="url(#paint1_linear_262_2865)" stroke-width="0.5" shape-rendering="crispEdges"/>
</g>
<defs>
<filter id="filter0_bd_262_2865" x="10" y="0" width="44" height="44" filterUnits="userSpaceOnUse" color-interpolation-filters="sRGB">
<feFlood flood-opacity="0" result="BackgroundImageFix"/>
<feGaussianBlur in="BackgroundImage" stdDeviation="2"/>
<feComposite in2="SourceAlpha" operator="in" result="effect1_backgroundBlur_262_2865"/>
<feColorMatrix in="SourceAlpha" type="matrix" values="0 0 0 0 0 0 0 0 0 0 0 0 0 0 0 0 0 0 127 0" result="hardAlpha"/>
<feOffset dy="4"/>
<feGaussianBlur stdDeviation="5"/>
<feComposite in2="hardAlpha" operator="out"/>
<feColorMatrix type="matrix" values="0 0 0 0 0 0 0 0 0 0 0 0 0 0 0 0 0 0 0.2 0"/>
<feBlend mode="normal" in2="effect1_backgroundBlur_262_2865" result="effect2_dropShadow_262_2865"/>
<feBlend mode="normal" in="SourceGraphic" in2="effect2_dropShadow_262_2865" result="shape"/>
</filter>
<linearGradient id="paint0_linear_262_2865" x1="32" y1="6" x2="32" y2="30" gradientUnits="userSpaceOnUse">
<stop stop-color="#4AB4F0" stop-opacity="0.5"/>
<stop offset="1" stop-color="#4AB4F0" stop-opacity="0.3"/>
</linearGradient>
<linearGradient id="paint1_linear_262_2865" x1="39.5" y1="8.25" x2="25.625" y2="28.125" gradientUnits="userSpaceOnUse">
<stop stop-color="#4AB4F0"/>
<stop offset="1" stop-color="#4AB4F0" stop-opacity="0.5"/>
</linearGradient>
</defs>
</svg>
