<svg width="18" height="20" viewBox="0 0 18 20" fill="none" xmlns="http://www.w3.org/2000/svg">
<path d="M1.76537e-08 17.8697C7.87898e-09 18.6894 0.63806 19.3501 1.42964 19.3501C2.22122 19.3501 2.85927 18.6894 2.85927 17.8697C2.85927 14.3624 5.61301 11.5059 9 11.5059C12.387 11.5059 15.1455 14.3624 15.1455 17.8697C15.1407 18.6894 15.7788 19.3501 16.5704 19.3501C17.3619 19.3501 18 18.6894 18 17.8697C18 12.728 13.9606 8.5501 9 8.5501C4.03465 8.5501 7.89083e-08 12.733 1.76537e-08 17.8697Z" fill="black"/>
<path d="M14.4 0.86357C14.4 0.385419 14.0172 -1.67343e-08 13.5422 -3.74949e-08C13.0673 -5.82554e-08 12.6845 0.385419 12.6845 0.863569C12.6845 2.90948 11.0322 4.57576 9.00002 4.57576C6.96783 4.57576 5.31271 2.90948 5.31271 0.863569C5.31559 0.385418 4.93275 -4.13828e-07 4.45781 -4.34588e-07C3.98286 -4.55349e-07 3.60002 0.385418 3.60002 0.863569C3.60002 3.86288 6.02369 6.3 9.00002 6.3C11.9792 6.3 14.4 3.85998 14.4 0.86357Z" fill="black"/>
</svg>
