<svg width="77" height="86" viewBox="0 0 77 86" fill="none" xmlns="http://www.w3.org/2000/svg">
<path d="M43.2372 56.7958C42.9276 57.9514 43.6082 59.1321 44.7623 59.4413C45.9163 59.7505 47.0961 59.0683 47.4058 57.9127C48.7306 52.9683 53.8244 50.017 58.7623 51.3401C63.7002 52.6633 66.6429 57.7679 65.318 62.7123C65.0014 63.866 65.6821 65.0467 66.8361 65.356C67.9902 65.6652 69.17 64.983 69.4796 63.8274C71.4219 56.5788 67.1109 49.1109 59.8789 47.1731C52.6398 45.2334 45.1776 49.5542 43.2372 56.7958Z" fill="#4AB4F0"/>
<path d="M32.6542 30.3293C33.6903 30.9275 35.0069 30.5756 35.6043 29.5409C36.2017 28.5063 35.8481 27.1901 34.812 26.5919C30.3789 24.0325 28.8466 18.3485 31.4027 13.9212C33.9587 9.49399 39.651 7.97277 44.0841 10.5322C45.1165 11.1366 46.4332 10.7848 47.0306 9.75009C47.6279 8.7154 47.2743 7.39921 46.2383 6.80104C39.7394 3.04889 31.4102 5.28011 27.6666 11.7642C23.9194 18.2545 26.1616 26.5808 32.6542 30.3293Z" fill="#4AB4F0"/>
<g filter="url(#filter0_bd_262_2837)">
<mask id="path-3-inside-1_262_2837" fill="white">
<path fill-rule="evenodd" clip-rule="evenodd" d="M66.4032 42.932C66.4034 42.9485 66.4034 42.9652 66.4034 42.9818C66.4034 42.9942 66.4034 43.0066 66.4034 43.019C66.4034 43.0314 66.4034 43.0438 66.4034 43.0562C66.4034 43.0728 66.4034 43.0895 66.4032 43.1061C66.3361 58.6137 53.7193 71.2207 38.2017 71.2207C22.6991 71.2207 10.0674 58.6286 10.0003 43.106C10.0001 43.0894 10 43.0728 10 43.0562C10 43.0438 10 43.0314 10 43.019C10 43.0066 10 42.9942 10 42.9818C10 42.9651 10.0001 42.9485 10.0003 42.9319C10.0674 27.4243 22.6841 14.8173 38.2017 14.8173C53.7044 14.8173 66.3361 27.4094 66.4032 42.932ZM57.4549 42.6627C57.2447 32.2161 48.6837 23.7737 38.2017 23.7737C27.5885 23.7737 18.9596 32.429 18.9596 43.0562C18.9596 43.1635 18.9559 43.2699 18.9485 43.3753C19.1588 53.8218 27.7198 62.2643 38.2017 62.2643C48.815 62.2643 57.4438 53.609 57.4438 42.9818C57.4438 42.8745 57.4476 42.7681 57.4549 42.6627Z"/>
</mask>
<path fill-rule="evenodd" clip-rule="evenodd" d="M66.4032 42.932C66.4034 42.9485 66.4034 42.9652 66.4034 42.9818C66.4034 42.9942 66.4034 43.0066 66.4034 43.019C66.4034 43.0314 66.4034 43.0438 66.4034 43.0562C66.4034 43.0728 66.4034 43.0895 66.4032 43.1061C66.3361 58.6137 53.7193 71.2207 38.2017 71.2207C22.6991 71.2207 10.0674 58.6286 10.0003 43.106C10.0001 43.0894 10 43.0728 10 43.0562C10 43.0438 10 43.0314 10 43.019C10 43.0066 10 42.9942 10 42.9818C10 42.9651 10.0001 42.9485 10.0003 42.9319C10.0674 27.4243 22.6841 14.8173 38.2017 14.8173C53.7044 14.8173 66.3361 27.4094 66.4032 42.932ZM57.4549 42.6627C57.2447 32.2161 48.6837 23.7737 38.2017 23.7737C27.5885 23.7737 18.9596 32.429 18.9596 43.0562C18.9596 43.1635 18.9559 43.2699 18.9485 43.3753C19.1588 53.8218 27.7198 62.2643 38.2017 62.2643C48.815 62.2643 57.4438 53.609 57.4438 42.9818C57.4438 42.8745 57.4476 42.7681 57.4549 42.6627Z" fill="url(#paint0_linear_262_2837)" shape-rendering="crispEdges"/>
<path d="M66.4032 42.932L65.9032 42.9341L65.9032 42.9374L66.4032 42.932ZM66.4034 43.019L65.9034 43.0183L65.9034 43.0196L66.4034 43.019ZM66.4032 43.1061L65.9032 43.1007L65.9032 43.1039L66.4032 43.1061ZM10.0003 43.106L10.5003 43.1039L10.5003 43.1006L10.0003 43.106ZM10 43.019L10.5 43.0196L10.5 43.0184L10 43.019ZM10.0003 42.9319L10.5003 42.9373L10.5003 42.9341L10.0003 42.9319ZM57.4549 42.6627L57.9537 42.6974L57.9553 42.6751L57.9548 42.6526L57.4549 42.6627ZM18.9485 43.3753L18.4498 43.3405L18.4482 43.3629L18.4486 43.3853L18.9485 43.3753ZM66.9034 42.9818C66.9034 42.9634 66.9033 42.945 66.9031 42.9266L65.9032 42.9374C65.9034 42.9521 65.9034 42.967 65.9034 42.9818L66.9034 42.9818ZM66.9034 43.0196C66.9034 43.007 66.9034 42.9944 66.9034 42.9818L65.9034 42.9818C65.9034 42.994 65.9034 43.0062 65.9034 43.0183L66.9034 43.0196ZM66.9034 43.0562C66.9034 43.0436 66.9034 43.031 66.9034 43.0183L65.9034 43.0196C65.9034 43.0318 65.9034 43.044 65.9034 43.0562L66.9034 43.0562ZM66.9031 43.1114C66.9033 43.0931 66.9034 43.0746 66.9034 43.0562L65.9034 43.0562C65.9034 43.071 65.9034 43.0859 65.9032 43.1007L66.9031 43.1114ZM38.2017 71.7207C53.9956 71.7207 66.8349 58.8903 66.9032 43.1082L65.9032 43.1039C65.8373 58.3372 53.4431 70.7207 38.2017 70.7207L38.2017 71.7207ZM9.50028 43.1082C9.56855 58.9055 22.4232 71.7207 38.2017 71.7207L38.2017 70.7207C22.9749 70.7207 10.5662 58.3517 10.5003 43.1039L9.50028 43.1082ZM9.50001 43.0562C9.50001 43.0746 9.50011 43.093 9.50031 43.1114L10.5003 43.1006C10.5001 43.0859 10.5 43.0711 10.5 43.0562L9.50001 43.0562ZM9.50004 43.0184C9.50002 43.031 9.50001 43.0436 9.50001 43.0562L10.5 43.0562C10.5 43.044 10.5 43.0318 10.5 43.0196L9.50004 43.0184ZM9.50001 42.9818C9.50001 42.9944 9.50002 43.007 9.50004 43.0196L10.5 43.0184C10.5 43.0062 10.5 42.994 10.5 42.9818L9.50001 42.9818ZM9.50031 42.9265C9.50011 42.945 9.50001 42.9634 9.50001 42.9818L10.5 42.9818C10.5 42.9669 10.5001 42.9521 10.5003 42.9373L9.50031 42.9265ZM38.2017 14.3173C22.4079 14.3173 9.56855 27.1477 9.50028 42.9298L10.5003 42.9341C10.5662 27.7008 22.9603 15.3173 38.2017 15.3173L38.2017 14.3173ZM66.9032 42.9298C66.8349 27.1325 53.9803 14.3173 38.2017 14.3173L38.2017 15.3173C53.4285 15.3173 65.8373 27.6863 65.9032 42.9341L66.9032 42.9298ZM38.2017 24.2737C48.4102 24.2737 56.7502 32.4971 56.955 42.6728L57.9548 42.6526C57.7391 31.9351 48.9571 23.2737 38.2017 23.2737L38.2017 24.2737ZM19.4596 43.0562C19.4596 32.704 27.8658 24.2737 38.2017 24.2737L38.2017 23.2737C27.3112 23.2737 18.4596 32.154 18.4596 43.0562L19.4596 43.0562ZM19.4473 43.41C19.4555 43.2931 19.4596 43.1751 19.4596 43.0562L18.4596 43.0562C18.4596 43.1519 18.4563 43.2467 18.4498 43.3405L19.4473 43.41ZM38.2017 61.7643C27.9932 61.7643 19.6532 53.5408 19.4484 43.3652L18.4486 43.3853C18.6643 54.1028 27.4464 62.7643 38.2017 62.7643L38.2017 61.7643ZM56.9438 42.9818C56.9438 53.334 48.5377 61.7643 38.2017 61.7643L38.2017 62.7643C49.0922 62.7643 57.9438 53.884 57.9438 42.9818L56.9438 42.9818ZM56.9561 42.6279C56.948 42.7449 56.9438 42.8629 56.9438 42.9818L57.9438 42.9818C57.9438 42.8861 57.9472 42.7913 57.9537 42.6974L56.9561 42.6279Z" fill="url(#paint1_linear_262_2837)" mask="url(#path-3-inside-1_262_2837)"/>
</g>
<path d="M69.4889 63.7928C69.7985 62.6373 69.1179 61.4566 67.9638 61.1473C66.8098 60.8381 65.6299 61.5203 65.3203 62.6759C63.9954 67.6203 58.9017 70.5716 53.9638 69.2485C49.0258 67.9254 46.0832 62.8208 47.408 57.8763C47.7247 56.7226 47.044 55.5419 45.89 55.2327C44.7359 54.9234 43.5561 55.6056 43.2465 56.7612C41.3042 64.0098 45.6152 71.4777 52.8472 73.4155C60.0863 75.3552 67.5485 71.0344 69.4889 63.7928Z" fill="#4AB4F0"/>
<path d="M46.2072 6.78321C45.1712 6.18504 43.8545 6.53691 43.2572 7.5716C42.6598 8.60629 43.0134 9.92248 44.0494 10.5206C48.4825 13.0801 50.0149 18.7641 47.4588 23.1913C44.9027 27.6186 39.2104 29.1398 34.7774 26.5803C33.7449 25.9759 32.4283 26.3278 31.8309 27.3625C31.2335 28.3971 31.5871 29.7133 32.6232 30.3115C39.1221 34.0637 47.4513 31.8324 51.1949 25.3484C54.9421 18.858 52.6999 10.5317 46.2072 6.78321Z" fill="#4AB4F0"/>
<defs>
<filter id="filter0_bd_262_2837" x="0" y="8.81738" width="76.4034" height="76.4033" filterUnits="userSpaceOnUse" color-interpolation-filters="sRGB">
<feFlood flood-opacity="0" result="BackgroundImageFix"/>
<feGaussianBlur in="BackgroundImage" stdDeviation="2"/>
<feComposite in2="SourceAlpha" operator="in" result="effect1_backgroundBlur_262_2837"/>
<feColorMatrix in="SourceAlpha" type="matrix" values="0 0 0 0 0 0 0 0 0 0 0 0 0 0 0 0 0 0 127 0" result="hardAlpha"/>
<feOffset dy="4"/>
<feGaussianBlur stdDeviation="5"/>
<feComposite in2="hardAlpha" operator="out"/>
<feColorMatrix type="matrix" values="0 0 0 0 0 0 0 0 0 0 0 0 0 0 0 0 0 0 0.2 0"/>
<feBlend mode="normal" in2="effect1_backgroundBlur_262_2837" result="effect2_dropShadow_262_2837"/>
<feBlend mode="normal" in="SourceGraphic" in2="effect2_dropShadow_262_2837" result="shape"/>
</filter>
<linearGradient id="paint0_linear_262_2837" x1="38.2017" y1="71.2207" x2="38.2017" y2="14.8173" gradientUnits="userSpaceOnUse">
<stop stop-color="#4AB4F0" stop-opacity="0.5"/>
<stop offset="1" stop-color="#4AB4F0" stop-opacity="0.3"/>
</linearGradient>
<linearGradient id="paint1_linear_262_2837" x1="25.6512" y1="71.2207" x2="61.9738" y2="28.4013" gradientUnits="userSpaceOnUse">
<stop stop-color="#4AB4F0"/>
<stop offset="1" stop-color="#4AB4F0" stop-opacity="0.5"/>
</linearGradient>
</defs>
</svg>
