<svg width="74" height="55" viewBox="0 0 74 55" fill="none" xmlns="http://www.w3.org/2000/svg">
<path d="M56.3839 12.8096L69.1086 25.5484C70.1875 26.6293 71.9456 26.6293 73.0246 25.5484C74.1036 24.4674 74.1036 22.7061 73.0246 21.6251L58.3465 6.92011C57.2675 5.83913 55.5095 5.83913 54.4305 6.92011L39.7525 21.6251C39.213 22.1656 38.9433 22.8739 38.9433 23.5914C38.9433 24.309 39.213 25.0079 39.7525 25.5577C40.8315 26.6386 42.5895 26.6386 43.6685 25.5577L56.3839 12.8096Z" fill="#4AB4F0"/>
<path d="M56.3932 34.2998L43.6685 21.561C42.5896 20.48 40.8315 20.48 39.7525 21.561C38.6736 22.642 38.6736 24.4032 39.7525 25.4842L54.4306 40.1893C55.5096 41.2702 57.2676 41.2702 58.3466 40.1893L73.0246 25.4842C73.5641 24.9437 73.8338 24.2355 73.8338 23.518C73.8338 22.8004 73.5641 22.1015 73.0246 21.5517C71.9456 20.4707 70.1876 20.4707 69.1086 21.5517L56.3932 34.2998Z" fill="#4AB4F0"/>
<g filter="url(#filter0_bd_262_2838)">
<mask id="path-3-inside-1_262_2838" fill="white">
<path fill-rule="evenodd" clip-rule="evenodd" d="M26.0405 23.4352L36.7846 34.1715L47.5288 23.4195L36.7846 12.6832L26.0405 23.4352ZM20.3216 25.5443L34.8233 40.0461C35.9016 41.1243 37.6584 41.1243 38.7366 40.0461L53.2008 25.5819C53.2743 25.5222 53.3454 25.4581 53.4138 25.3898C54.3025 24.501 54.4587 23.1513 53.8824 22.1006C53.7581 21.8703 53.5988 21.6533 53.4045 21.4556C53.3537 21.4048 53.3014 21.3564 53.2478 21.3104L38.7459 6.80861C37.6677 5.73037 35.9109 5.73037 34.8326 6.80861L20.3685 21.2727C20.295 21.3324 20.2239 21.3965 20.1555 21.4649C19.2669 22.3535 19.1106 23.703 19.6866 24.7537C19.8109 24.9841 19.9703 25.2012 20.1648 25.3991C20.2156 25.4498 20.2679 25.4983 20.3216 25.5443Z"/>
</mask>
<path fill-rule="evenodd" clip-rule="evenodd" d="M26.0405 23.4352L36.7846 34.1715L47.5288 23.4195L36.7846 12.6832L26.0405 23.4352ZM20.3216 25.5443L34.8233 40.0461C35.9016 41.1243 37.6584 41.1243 38.7366 40.0461L53.2008 25.5819C53.2743 25.5222 53.3454 25.4581 53.4138 25.3898C54.3025 24.501 54.4587 23.1513 53.8824 22.1006C53.7581 21.8703 53.5988 21.6533 53.4045 21.4556C53.3537 21.4048 53.3014 21.3564 53.2478 21.3104L38.7459 6.80861C37.6677 5.73037 35.9109 5.73037 34.8326 6.80861L20.3685 21.2727C20.295 21.3324 20.2239 21.3965 20.1555 21.4649C19.2669 22.3535 19.1106 23.703 19.6866 24.7537C19.8109 24.9841 19.9703 25.2012 20.1648 25.3991C20.2156 25.4498 20.2679 25.4983 20.3216 25.5443Z" fill="url(#paint0_linear_262_2838)" shape-rendering="crispEdges"/>
<path d="M36.7846 34.1715L36.4312 34.5252L36.7849 34.8786L37.1383 34.5249L36.7846 34.1715ZM26.0405 23.4352L25.6868 23.0818L25.3334 23.4355L25.6871 23.7889L26.0405 23.4352ZM47.5288 23.4195L47.8825 23.7729L48.2359 23.4192L47.8822 23.0658L47.5288 23.4195ZM36.7846 12.6832L37.1381 12.3295L36.7844 11.9761L36.431 12.3298L36.7846 12.6832ZM20.3216 25.5443L20.6751 25.1907L20.6615 25.1771L20.647 25.1647L20.3216 25.5443ZM34.8233 40.0461L35.1769 39.6925L34.8233 40.0461ZM38.7366 40.0461L38.3831 39.6925L38.7366 40.0461ZM53.2008 25.5819L52.8855 25.1938L52.8655 25.2101L52.8472 25.2284L53.2008 25.5819ZM53.4138 25.3898L53.7673 25.7433L53.7673 25.7433L53.4138 25.3898ZM53.8824 22.1006L53.4424 22.3381L53.444 22.341L53.8824 22.1006ZM53.4045 21.4556L53.7611 21.1051L53.758 21.1021L53.4045 21.4556ZM53.2478 21.3104L52.8942 21.664L52.9078 21.6776L52.9223 21.69L53.2478 21.3104ZM38.7459 6.80861L38.3924 7.16217L38.3924 7.16217L38.7459 6.80861ZM34.8326 6.80861L34.4791 6.45506L34.8326 6.80861ZM20.3685 21.2727L20.6838 21.6608L20.7038 21.6445L20.7221 21.6263L20.3685 21.2727ZM20.1555 21.4649L20.509 21.8185L20.509 21.8185L20.1555 21.4649ZM19.6866 24.7537L20.1267 24.5162L20.1251 24.5133L19.6866 24.7537ZM20.1648 25.3991L19.8082 25.7496L19.8112 25.7526L20.1648 25.3991ZM37.1381 33.8178L26.3939 23.0815L25.6871 23.7889L36.4312 34.5252L37.1381 33.8178ZM47.1751 23.066L36.431 33.818L37.1383 34.5249L47.8825 23.7729L47.1751 23.066ZM36.4312 13.0369L47.1754 23.7732L47.8822 23.0658L37.1381 12.3295L36.4312 13.0369ZM26.3942 23.7886L37.1383 13.0366L36.431 12.3298L25.6868 23.0818L26.3942 23.7886ZM19.968 25.8978L34.4698 40.3996L35.1769 39.6925L20.6751 25.1907L19.968 25.8978ZM34.4698 40.3996C35.7433 41.6731 37.8167 41.6731 39.0902 40.3996L38.3831 39.6925C37.5001 40.5755 36.0599 40.5755 35.1769 39.6925L34.4698 40.3996ZM39.0902 40.3996L53.5543 25.9355L52.8472 25.2284L38.3831 39.6925L39.0902 40.3996ZM53.516 25.97C53.6029 25.8995 53.6868 25.8239 53.7673 25.7433L53.0602 25.0362C53.004 25.0924 52.9457 25.1449 52.8855 25.1938L53.516 25.97ZM53.7673 25.7433C54.8179 24.6928 55.0008 23.0999 54.3208 21.8601L53.444 22.341C53.9167 23.2028 53.7871 24.3093 53.0602 25.0362L53.7673 25.7433ZM54.3224 21.8631C54.1756 21.591 53.988 21.336 53.7611 21.1051L53.0479 21.8061C53.2096 21.9706 53.3407 22.1497 53.4424 22.3381L54.3224 21.8631ZM53.758 21.1021C53.6982 21.0422 53.6365 20.9852 53.5732 20.9309L52.9223 21.69C52.9663 21.7277 53.0092 21.7674 53.0509 21.8092L53.758 21.1021ZM53.6013 20.9569L39.0995 6.45506L38.3924 7.16217L52.8942 21.664L53.6013 20.9569ZM39.0995 6.45506C37.826 5.18155 35.7526 5.18156 34.4791 6.45506L35.1862 7.16217C36.0692 6.27918 37.5094 6.27918 38.3924 7.16217L39.0995 6.45506ZM34.4791 6.45506L20.015 20.9192L20.7221 21.6263L35.1862 7.16217L34.4791 6.45506ZM20.0533 20.8846C19.9664 20.9552 19.8825 21.0308 19.8019 21.1114L20.509 21.8185C20.5653 21.7622 20.6236 21.7097 20.6838 21.6608L20.0533 20.8846ZM19.8019 21.1114C18.7515 22.1618 18.5686 23.7543 19.2482 24.994L20.1251 24.5133C19.6526 23.6516 19.7822 22.5453 20.509 21.8185L19.8019 21.1114ZM19.2466 24.9911C19.3935 25.2634 19.5811 25.5185 19.8082 25.7496L20.5214 25.0485C20.3596 24.884 20.2284 24.7048 20.1266 24.5162L19.2466 24.9911ZM19.8112 25.7526C19.8711 25.8125 19.9328 25.8695 19.9961 25.9239L20.647 25.1647C20.603 25.127 20.5601 25.0872 20.5183 25.0455L19.8112 25.7526Z" fill="url(#paint1_linear_262_2838)" mask="url(#path-3-inside-1_262_2838)"/>
</g>
<path d="M17.4406 12.8096L30.1653 25.5484C31.2443 26.6293 33.0023 26.6293 34.0813 25.5484C35.1603 24.4674 35.1603 22.7061 34.0813 21.6251L19.4033 6.92011C18.3243 5.83913 16.5663 5.83913 15.4873 6.92011L0.809266 21.6251C0.269769 22.1656 1.99887e-05 22.8739 2.00279e-05 23.5914C2.00671e-05 24.309 0.269769 25.0079 0.809266 25.5577C1.88826 26.6386 3.64627 26.6386 4.72527 25.5577L17.4406 12.8096Z" fill="#4AB4F0"/>
<path d="M17.4499 34.2998L4.72525 21.561C3.64625 20.48 1.88824 20.48 0.809246 21.561C-0.269747 22.642 -0.269747 24.4032 0.809246 25.4842L15.4873 40.1893C16.5663 41.2702 18.3243 41.2702 19.4033 40.1893L34.0813 25.4842C34.6208 24.9437 34.8905 24.2355 34.8905 23.518C34.8905 22.8004 34.6208 22.1015 34.0813 21.5517C33.0023 20.4707 31.2443 20.4707 30.1653 21.5517L17.4499 34.2998Z" fill="#4AB4F0"/>
<defs>
<filter id="filter0_bd_262_2838" x="9.3468" y="0" width="54.8757" height="54.8547" filterUnits="userSpaceOnUse" color-interpolation-filters="sRGB">
<feFlood flood-opacity="0" result="BackgroundImageFix"/>
<feGaussianBlur in="BackgroundImage" stdDeviation="2"/>
<feComposite in2="SourceAlpha" operator="in" result="effect1_backgroundBlur_262_2838"/>
<feColorMatrix in="SourceAlpha" type="matrix" values="0 0 0 0 0 0 0 0 0 0 0 0 0 0 0 0 0 0 127 0" result="hardAlpha"/>
<feOffset dy="4"/>
<feGaussianBlur stdDeviation="5"/>
<feComposite in2="hardAlpha" operator="out"/>
<feColorMatrix type="matrix" values="0 0 0 0 0 0 0 0 0 0 0 0 0 0 0 0 0 0 0.2 0"/>
<feBlend mode="normal" in2="effect1_backgroundBlur_262_2838" result="effect2_dropShadow_262_2838"/>
<feBlend mode="normal" in="SourceGraphic" in2="effect2_dropShadow_262_2838" result="shape"/>
</filter>
<linearGradient id="paint0_linear_262_2838" x1="36.7588" y1="40.8547" x2="36.7588" y2="5.9273" gradientUnits="userSpaceOnUse">
<stop stop-color="#4AB4F0" stop-opacity="0.3"/>
<stop offset="1" stop-color="#4AB4F0" stop-opacity="0.5"/>
</linearGradient>
<linearGradient id="paint1_linear_262_2838" x1="19.3468" y1="23.4095" x2="54.0967" y2="23.4095" gradientUnits="userSpaceOnUse">
<stop stop-color="#4AB4F0"/>
<stop offset="1" stop-color="#4AB4F0" stop-opacity="0.5"/>
</linearGradient>
</defs>
</svg>
