<svg width="17" height="17" viewBox="0 0 17 17" fill="none" xmlns="http://www.w3.org/2000/svg">
<path fill-rule="evenodd" clip-rule="evenodd" d="M8.36104 3.06563L3.16706 8.26342L8.36866 13.4612L13.5626 8.26343L8.36104 3.06563ZM8.39198 0.00647169C8.014 -0.031043 7.62268 0.0945392 7.334 0.383218L0.383218 7.334C-0.127739 7.84496 -0.127739 8.67747 0.383218 9.18842L7.334 16.1392C7.58948 16.3947 7.92425 16.5224 8.26342 16.5224C8.28824 16.5224 8.31302 16.5217 8.33772 16.5204C8.7157 16.5579 9.10702 16.4323 9.3957 16.1436L16.3465 9.19284C16.8574 8.68189 16.8574 7.84938 16.3465 7.33842L9.3957 0.387637C9.14022 0.132159 8.80546 0.00441865 8.46629 0.00441862C8.44146 0.00441862 8.41668 0.00510298 8.39198 0.00647169Z" fill="#FEFFFF" fill-opacity="0.5"/>
</svg>
