<svg width="168" height="22" viewBox="-1 -1 168 22" id="bg-logo-top" y="27" xmlns="http://www.w3.org/2000/svg"><g fill="none" fill-rule="evenodd"><g fill="#FFF"><path d="M125.369 13.669c-1.177 1.3-2.967 2.396-5.241 2.396-3.373 0-5.553-2.33-5.553-5.937 0-3.676 2.077-5.959 5.42-5.959 1.944 0 3.97.93 5.182 2.189a.105.105 0 0 0 .182-.073v-1.86c-1.367-1.231-3.348-1.973-5.364-1.973-2.1 0-3.878.734-5.141 2.123-1.252 1.375-1.913 3.295-1.913 5.553 0 4.59 2.888 7.675 7.187 7.675 2.051 0 4.054-.76 5.424-2.026V13.74a.106.106 0 0 0-.183-.071M45.668 2.835H33.84V4.43h5.041v12.994h1.745V4.429h5.04zM160.774 16.107c-1.66 0-3.446-1.228-3.446-3.924 0-1.982 1.046-4.114 3.342-4.114 2.561 0 3.47 2.171 3.47 4.03 0 1.992-1.157 4.008-3.366 4.008zm3.412-13.25V7.82c-.902-.977-2.41-1.333-3.496-1.333-1.45 0-2.75.541-3.664 1.523-.94 1.01-1.436 2.41-1.436 4.05 0 3.891 2.583 5.634 5.142 5.634 1.495 0 2.729-.535 3.454-1.48v1.231h1.74V2.858h-1.74zM127.861 17.444h1.766V2.858h-1.766zM67.841 12.09c0 3.354 2.172 5.607 5.406 5.607 1.337 0 2.647-.361 3.777-1.15v-1.804a.106.106 0 0 0-.176-.079c-1.136 1.026-2.787 1.426-3.508 1.426-2.34 0-3.854-1.57-3.854-4 0-2.429 1.513-3.999 3.854-3.999.723 0 2.323.203 3.51 1.227.068.059.174.01.174-.08V7.63c-.715-.45-2.22-1.146-3.777-1.146-3.234 0-5.406 2.253-5.406 5.606M46.542 11.085l.003-.033c.07-.93.48-1.729 1.186-2.313.564-.466 1.306-.723 2.091-.723 1.902 0 3.141 1.164 3.234 3.037l.001.032h-6.515zm3.327-4.599c-3.053 0-5.026 2.186-5.026 5.571.112 3.523 2.113 5.626 5.353 5.626 1.545 0 2.853-.52 4.024-1.543V14.4c0-.102-.129-.144-.19-.063-.776 1.022-2.63 1.847-3.771 1.847-1.09 0-2.115-.36-2.674-.938a3.782 3.782 0 0 1-1.04-2.66h8.162v-.125c0-2.302-.392-3.607-1.399-4.655-.84-.875-1.998-1.319-3.439-1.319zM151.876 12.183c0 2.906-1.675 3.937-3.11 3.937-1.391 0-2.87-.962-2.87-2.745v-6.64h-1.66v6.61c0 2.56 1.828 4.348 4.445 4.348 1.449 0 2.58-.488 3.299-1.418v1.166h1.583V6.735h-1.687v5.448zM61.565 6.487c-1.336 0-2.468.446-3.227 1.265V6.729H56.69v10.715h1.685V11.34c0-1.009.308-1.866.868-2.414.604-.592 1.35-.865 2.277-.837 1.32.04 2.653.914 2.653 2.777v6.579h1.686v-6.658c0-1.32-.42-2.42-1.213-3.181-.762-.731-1.828-1.118-3.081-1.118M80.354 11.085l.002-.033c.07-.93.48-1.729 1.186-2.313.564-.466 1.307-.723 2.092-.723 1.902 0 3.14 1.164 3.233 3.037l.002.032h-6.515zm3.327-4.599c-3.054 0-5.026 2.186-5.026 5.571.111 3.523 2.112 5.626 5.353 5.626 1.545 0 2.852-.52 4.023-1.543V14.4c0-.102-.129-.144-.19-.063-.776 1.022-2.63 1.847-3.77 1.847-1.09 0-2.115-.36-2.675-.938a3.782 3.782 0 0 1-1.039-2.66h8.162v-.125c0-2.302-.393-3.607-1.4-4.655-.84-.875-1.997-1.319-3.438-1.319zM95.349 6.487c-1.336 0-2.468.446-3.227 1.265V6.729h-1.648v10.715h1.685V11.34c0-1.009.308-1.866.869-2.414.603-.592 1.35-.865 2.276-.837 1.32.04 2.653.914 2.653 2.777v6.579h1.686v-6.658c0-1.32-.42-2.42-1.213-3.181-.762-.731-1.828-1.118-3.081-1.118M104.839 3.873h-1.751v2.855h-1.758v1.558h1.758v7.367c0 .634.193 1.124.573 1.458.356.312.875.476 1.493.475 1.022-.055 2.194-.498 2.194-.498v-1.614a.106.106 0 0 0-.14-.1c-.4.141-1.327.427-1.807.496-.176.028-.331.053-.447-.045-.076-.066-.115-.152-.115-.34V8.285h3.085V6.728h-3.085V3.873zM137.132 16.077c-2.143 0-3.582-1.611-3.584-3.988v-.004c.006-2.37 1.445-3.962 3.584-3.962 2.143 0 3.584 1.598 3.584 3.977 0 2.378-1.44 3.977-3.584 3.977m0-9.57c-3.108 0-5.196 2.248-5.196 5.593 0 3.345 2.088 5.592 5.196 5.592 3.108 0 5.196-2.247 5.196-5.592 0-3.345-2.088-5.593-5.196-5.593"/></g><g fill-rule="nonzero"><path d="M24.096 16.333c-.446.445-1.338 1.111-2.9 1.111h-9.592c2.9-2.777 5.354-5.11 5.577-5.333.223-.222.78-.778 1.338-1.222 1.116-1 2.008-1.111 2.789-1.111 1.115 0 2.007.444 2.788 1.11 1.562 1.445 1.562 4 0 5.445zm1.896-7.222a6.241 6.241 0 0 0-4.573-2c-1.561 0-2.9.556-4.127 1.445-.446.444-1.115.888-1.673 1.555-.446.445-10.038 9.778-10.038 9.778C6.138 20 6.808 20 7.365 20h12.158c.892 0 1.562 0 2.23-.111a6.868 6.868 0 0 0 4.128-1.778c2.565-2.444 2.565-6.555.111-9z" fill="#00A3FF"/><path d="M10.377 8.444C9.15 7.556 7.923 7.111 6.473 7.111a6.241 6.241 0 0 0-4.573 2 6.455 6.455 0 0 0 .112 9.111c1.115 1 2.23 1.556 3.569 1.667l2.565-2.445h-1.45c-1.45-.11-2.342-.555-2.9-1.11a3.983 3.983 0 0 1-.111-5.556c.78-.778 1.673-1.111 2.788-1.111.67 0 1.673.11 2.677 1.11.446.445 1.673 1.334 2.12 1.779h.11l1.674-1.667v-.111C12.274 10 11.046 9 10.377 8.444" fill="#00C8DC"/><path d="M22.088 5.667A8.703 8.703 0 0 0 13.946 0C9.596 0 6.138 3.222 5.47 7.222c.335 0 .67-.11 1.116-.11.446 0 1.003.11 1.45.11.557-2.778 3.011-4.778 5.911-4.778C16.4 2.444 18.52 3.89 19.523 6c0 0 .112.111.112 0 .78-.111 1.673-.333 2.453-.333 0 .11 0 .11 0 0" fill="#006EFF"/></g></g></svg>